HIERARCHY
ROOT Hips
{
	OFFSET -0.001795 -0.223333 0.028219
	CHANNELS 6 Xposition Yposition Zposition Zrotation Yrotation Xrotation 
	JOINT LeftUpLeg
	{
		OFFSET 0.069520 -0.091406 -0.006815
		CHANNELS 3 Zrotation Yrotation Xrotation
		JOINT LeftLeg
		{
			OFFSET 0.034277 -0.375199 -0.004496
			CHANNELS 3 Zrotation Yrotation Xrotation
			JOINT LeftFoot
			{
				OFFSET -0.013596 -0.397961 -0.043693
				CHANNELS 3 Zrotation Yrotation Xrotation
				JOINT LeftToe
				{
					OFFSET 0.026358 -0.055791 0.119288
					CHANNELS 3 Zrotation Yrotation Xrotation
					End Site
					{
						OFFSET 0.000000 0.000000 0.000000
					}
				}
			}
		}
	}
	JOINT RightUpLeg
	{
		OFFSET -0.067670 -0.090522 -0.004320
		CHANNELS 3 Zrotation Yrotation Xrotation
		JOINT RightLeg
		{
			OFFSET -0.038290 -0.382569 -0.008850
			CHANNELS 3 Zrotation Yrotation Xrotation
			JOINT RightFoot
			{
				OFFSET 0.015774 -0.398415 -0.042312
				CHANNELS 3 Zrotation Yrotation Xrotation
				JOINT RightToe
				{
					OFFSET -0.025372 -0.048144 0.123348
					CHANNELS 3 Zrotation Yrotation Xrotation
					End Site
					{
						OFFSET 0.000000 0.000000 0.000000
					}
				}
			}
		}
	}
	JOINT Spine
	{
		OFFSET -0.002533 0.108963 -0.026696
		CHANNELS 3 Zrotation Yrotation Xrotation
		JOINT Spine1
		{
			OFFSET 0.005487 0.135180 0.001092
			CHANNELS 3 Zrotation Yrotation Xrotation
			JOINT Spine2
			{
				OFFSET 0.001457 0.052922 0.025425
				CHANNELS 3 Zrotation Yrotation Xrotation
				JOINT Neck
				{
					OFFSET -0.002778 0.213870 -0.042857
					CHANNELS 3 Zrotation Yrotation Xrotation
					JOINT Head
					{
						OFFSET 0.005152 0.064970 0.051349
						CHANNELS 3 Zrotation Yrotation Xrotation
						End Site
						{
							OFFSET 0.000000 0.000000 0.000000
						}
					}
				}
				JOINT LeftShoulder
				{
					OFFSET 0.078845 0.121749 -0.034090
					CHANNELS 3 Zrotation Yrotation Xrotation
					JOINT LeftArm
					{
						OFFSET 0.090977 0.030469 -0.008868
						CHANNELS 3 Zrotation Yrotation Xrotation
						JOINT LeftForeArm
						{
							OFFSET 0.259612 -0.012772 -0.027456
							CHANNELS 3 Zrotation Yrotation Xrotation
							JOINT LeftHand
							{
								OFFSET 0.249234 0.008986 -0.001171
								CHANNELS 3 Zrotation Yrotation Xrotation
								End Site
								{
									OFFSET 0.000000 0.000000 0.000000
								}
							}
						}
					}
				}
				JOINT RightShoulder
				{
					OFFSET -0.081759 0.118833 -0.038615
					CHANNELS 3 Zrotation Yrotation Xrotation
					JOINT RightArm
					{
						OFFSET -0.096012 0.032551 -0.009143
						CHANNELS 3 Zrotation Yrotation Xrotation
						JOINT RightForeArm
						{
							OFFSET -0.253742 -0.013329 -0.021401
							CHANNELS 3 Zrotation Yrotation Xrotation
							JOINT RightHand
							{
								OFFSET -0.255298 0.007772 -0.005559
								CHANNELS 3 Zrotation Yrotation Xrotation
								End Site
								{
									OFFSET 0.000000 0.000000 0.000000
								}
							}
						}
					}
				}
			}
		}
	}
}
MOTION
Frames: 7
Frame Time: 0.050000
0.028998 0.907239 -0.058222 1.940074 6.670241 -6.575436 7.264391 -0.347193 -9.385647 -5.377821 0.525059 14.997509 3.108104 8.362635 5.291242 0.000000 0.000000 0.000000 -13.688459 -0.439695 -9.486265 5.613212 -1.192646 20.762646 -6.880935 -17.124706 7.232997 0.000000 0.000000 0.000000 1.874416 -4.810766 52.977299 -2.530619 1.373609 -24.654868 -1.371384 9.634817 21.952936 18.913348 -6.689450 -30.680727 0.000000 0.000000 0.000000 -4.154611 -29.196763 9.403571 -27.432428 -21.607711 0.193045 -149.518226 -87.056401 147.303029 0.000000 0.000000 0.000000 22.033040 21.227987 13.899202 33.208463 46.618255 7.490289 -6.851856 45.741598 -0.526557 0.000000 0.000000 0.000000 
0.028790 0.907351 -0.058279 2.118587 7.009007 -6.684970 7.259955 -0.353817 -9.446853 -5.735215 0.591414 15.224413 2.933468 8.113846 5.447607 0.000000 0.000000 0.000000 -13.742171 -0.465303 -9.427410 5.352250 -1.140837 21.070859 -6.991647 -17.331786 7.323470 0.000000 0.000000 0.000000 2.458049 -5.171279 52.965470 -2.484530 1.369993 -24.751582 -1.198159 9.648471 21.967643 19.200138 -6.747754 -31.043250 0.000000 0.000000 0.000000 -5.091730 -29.589414 9.627002 -29.297199 -22.046637 0.394277 -143.518644 -87.621328 141.528279 0.000000 0.000000 0.000000 22.104170 20.785468 13.706028 32.440001 46.187835 7.066766 -7.223285 46.143181 -0.671213 0.000000 0.000000 0.000000 
0.028527 0.907676 -0.058129 2.512326 7.289283 -6.692755 6.782434 -0.387628 -9.375463 -5.666569 0.567348 15.138324 2.793109 7.942041 5.652499 0.000000 0.000000 0.000000 -14.038101 -0.508481 -9.301408 5.117164 -1.080463 21.109473 -7.068083 -17.474773 7.334092 0.000000 0.000000 0.000000 3.242691 -5.596312 52.895001 -2.583126 1.401832 -24.912019 -1.421053 9.317908 21.852683 19.427046 -6.935101 -30.993955 0.000000 0.000000 0.000000 -6.731878 -29.950978 9.973215 -30.481784 -21.805524 0.458769 -138.260939 -87.942887 136.624604 0.000000 0.000000 0.000000 22.734668 20.456432 13.650480 31.567694 45.345274 6.459346 -7.301063 46.681588 -0.730751 0.000000 0.000000 0.000000 
0.028144 0.908101 -0.057815 2.772458 7.919272 -6.815060 6.405710 -0.413287 -9.214788 -5.547950 0.518279 15.007807 2.488782 7.474870 5.791273 0.000000 0.000000 0.000000 -14.249450 -0.558094 -8.930748 4.977774 -1.073150 21.112366 -7.271376 -17.856807 7.474033 0.000000 0.000000 0.000000 3.927627 -6.060870 52.801033 -2.637520 1.431439 -24.840674 -1.310389 9.086530 21.812442 19.459579 -6.763074 -31.709774 0.000000 0.000000 0.000000 -8.129989 -30.308740 10.269591 -32.023133 -21.848137 0.603307 -130.044191 -88.136484 128.544372 0.000000 0.000000 0.000000 22.809431 20.261460 13.553443 30.737180 44.538308 5.951206 -7.576876 46.394994 -0.872721 0.000000 0.000000 0.000000 
0.027424 0.908224 -0.057418 3.086731 8.391214 -6.661222 6.050913 -0.447785 -9.261554 -5.502997 0.494515 14.778903 2.276016 7.162075 5.914320 0.000000 0.000000 0.000000 -14.631202 -0.608448 -8.610946 5.101835 -1.122470 20.629282 -7.445344 -18.192976 7.349913 0.000000 0.000000 0.000000 4.568325 -6.430660 52.484476 -2.581871 1.425498 -24.909098 -1.477988 8.846360 21.643115 19.561465 -6.757250 -31.934159 0.000000 0.000000 0.000000 -9.469643 -30.308716 10.440987 -33.049251 -21.374749 0.598811 -119.396673 -87.960753 117.710151 0.000000 0.000000 0.000000 23.533775 20.158460 13.702975 29.949748 43.684920 5.418892 -7.616566 46.127493 -0.923135 0.000000 0.000000 0.000000 
0.026433 0.907667 -0.056963 3.397996 8.678551 -6.515609 5.899091 -0.465593 -9.306210 -5.740177 0.538943 14.615983 2.172877 6.983331 5.893930 0.000000 0.000000 0.000000 -14.996895 -0.654046 -8.465366 5.240584 -1.172747 20.388900 -7.567265 -18.440348 6.990590 0.000000 0.000000 0.000000 4.927109 -6.641364 52.325315 -2.689476 1.454438 -25.125277 -1.353127 8.836267 21.654235 19.644342 -6.730057 -32.178799 0.000000 0.000000 0.000000 -10.423460 -30.298504 10.540903 -33.937948 -20.889448 0.553069 -114.769320 -87.985639 113.114420 0.000000 0.000000 0.000000 24.134499 19.878460 13.750581 29.225557 43.018175 4.964223 -7.422193 45.610629 -0.867140 0.000000 0.000000 0.000000 
0.025426 0.907193 -0.056687 3.663595 8.928389 -6.434998 5.700668 -0.485367 -9.360043 -5.807620 0.545813 14.579340 2.082832 6.829838 5.884355 0.000000 0.000000 0.000000 -15.322124 -0.691933 -8.252615 5.399416 -1.223526 20.102077 -7.665899 -18.648175 6.654944 0.000000 0.000000 0.000000 5.295353 -6.854513 52.226730 -2.855313 1.498573 -25.268531 -1.190808 8.714208 21.575369 19.446253 -6.674431 -31.969363 0.000000 0.000000 0.000000 -11.744014 -30.264212 10.691937 -34.419317 -20.447109 0.517969 -107.653787 -87.769819 105.834380 0.000000 0.000000 0.000000 24.612336 19.905875 13.891246 28.802926 42.434286 4.663132 -7.809828 44.377326 -1.044939 0.000000 0.000000 0.000000 
